Format                                   : MPEG-4
Format profile                           : Base Media
Codec ID                                 : isom
File size                                : 510 MiB
Duration                                 : 1h 24mn
Overall bit rate mode                    : Variable
Overall bit rate                         : 843 Kbps
Encoded date                             : UTC 2010-10-02 07:09:01
Tagged date                              : UTC 2010-10-02 07:09:01

Video
ID                                       : 1
Format                                   : AVC
Format/Info                              : Advanced Video Codec
Format profile                           : Baseline@L3.0
Format settings, CABAC                   : No
Format settings, ReFrames                : 1 frame
Codec ID                                 : avc1
Codec ID/Info                            : Advanced Video Coding
Duration                                 : 1h 24mn
Bit rate                                 : 720 Kbps
Maximum bit rate                         : 1 902 Kbps
Width                                    : 720 pixels
Height                                   : 432 pixels
Display aspect ratio                     : 3:2
Frame rate mode                          : Constant
Frame rate                               : 23.976 fps
Color space                              : YUV
Chroma subsampling                       : 4:2:0
Bit depth                                : 8 bits
Scan type                                : Progressive
Bits/(Pixel*Frame)                       : 0.097
Stream size                              : 433 MiB (85%)
Writing library                          : x264 core 65 r1077 e46f648

Encoded date                             : UTC 2010-10-02 07:09:01
Tagged date                              : UTC 2010-10-02 07:09:34

Audio
ID                                       : 2
Format                                   : AAC
Format/Info                              : Advanced Audio Codec
Format profile                           : LC
Codec ID                                 : 40
Duration                                 : 1h 24mn
Bit rate mode                            : Variable
Bit rate                                 : 125 Kbps
Maximum bit rate                         : 256 Kbps
Channel(s)                               : 2 channels
Channel positions                        : Front: L R
Sampling rate                            : 44.1 KHz
Compression mode                         : Lossy
Stream size                              : 75.7 MiB (15%)
Encoded date                             : UTC 2010-10-02 07:09:27
Tagged date                              : UTC 2010-10-02 07:09:34
